<?xml version="1.0" encoding="UTF-8" standalone="no"?>
<svg
   xmlns:dc="http://purl.org/dc/elements/1.1/"
   xmlns:cc="http://creativecommons.org/ns#"
   xmlns:rdf="http://www.w3.org/1999/02/22-rdf-syntax-ns#"
   xmlns:svg="http://www.w3.org/2000/svg"
   xmlns="http://www.w3.org/2000/svg"
   xmlns:sodipodi="http://sodipodi.sourceforge.net/DTD/sodipodi-0.dtd"
   xmlns:inkscape="http://www.inkscape.org/namespaces/inkscape"
   version="1.1"
   id="svg2"
   xml:space="preserve"
   width="63.333332"
   height="32.8288"
   viewBox="0 0 63.333332 32.8288"
   sodipodi:docname="3.ai"><metadata
     id="metadata8"><rdf:RDF><cc:Work
         rdf:about=""><dc:format>image/svg+xml</dc:format><dc:type
           rdf:resource="http://purl.org/dc/dcmitype/StillImage" /></cc:Work></rdf:RDF></metadata><defs
     id="defs6"><clipPath
       clipPathUnits="userSpaceOnUse"
       id="clipPath18"><path
         d="M 0,24.622 H 47.5 V 0 H 0 Z"
         id="path16" /></clipPath></defs><sodipodi:namedview
     pagecolor="#ffffff"
     bordercolor="#666666"
     borderopacity="1"
     objecttolerance="10"
     gridtolerance="10"
     guidetolerance="10"
     inkscape:pageopacity="0"
     inkscape:pageshadow="2"
     inkscape:window-width="640"
     inkscape:window-height="480"
     id="namedview4" /><g
     id="g10"
     inkscape:groupmode="layer"
     inkscape:label="3"
     transform="matrix(1.3333333,0,0,-1.3333333,0,32.8288)"><g
       id="g12"><g
         id="g14"
         clip-path="url(#clipPath18)"><g
           id="g20"
           transform="translate(46,1.5)"><path
             d="m 0,0 h -38.5 l -6,10.811 6,10.811 H 0 Z"
             style="fill:none;stroke:#ffa700;stroke-width:3;stroke-linecap:round;stroke-linejoin:round;stroke-miterlimit:10;stroke-dasharray:none;stroke-opacity:1"
             id="path22" /></g><g
           id="g24"
           transform="translate(15.1875,12.2534)"><path
             d="m 0,0 c 0,-1.82 -1.476,-3.296 -3.296,-3.296 -1.82,0 -3.297,1.476 -3.297,3.296 0,1.82 1.477,3.296 3.297,3.296 C -1.476,3.296 0,1.82 0,0 Z"
             style="fill:none;stroke:#ffa700;stroke-width:3;stroke-linecap:round;stroke-linejoin:miter;stroke-miterlimit:10;stroke-dasharray:none;stroke-opacity:1"
             id="path26" /></g><g
           id="g28"
           transform="translate(23.3301,9.4551)"><path
             d="M 0,0 -2.459,3.378 V 0 h -2.019 v 6.667 h 2.079 L -0.08,3.508 V 6.667 H 1.938 L 1.938,0 Z"
             style="fill:#ffa700;fill-opacity:1;fill-rule:nonzero;stroke:none"
             id="path30" /></g><g
           id="g32"
           transform="translate(26.3525,9.4551)"><path
             d="M 0,0 V 6.667 H 5.057 V 4.907 H 2.019 V 4.248 H 4.987 V 2.489 H 2.019 V 1.759 H 5.057 V 0 Z"
             style="fill:#ffa700;fill-opacity:1;fill-rule:nonzero;stroke:none"
             id="path34" /></g><g
           id="g36"
           transform="translate(37.3994,9.4551)"><path
             d="M 0,0 -0.859,3.778 -1.719,0 h -2.119 l -1.909,6.667 h 2.259 l 0.859,-4.079 1.01,4.079 H -0.1 L 0.909,2.588 1.759,6.667 H 4.027 L 2.119,0 Z"
             style="fill:#ffa700;fill-opacity:1;fill-rule:nonzero;stroke:none"
             id="path38" /></g></g></g></g></svg>
