<?xml version="1.0" encoding="UTF-8" standalone="no"?>
<svg
   xmlns:dc="http://purl.org/dc/elements/1.1/"
   xmlns:cc="http://creativecommons.org/ns#"
   xmlns:rdf="http://www.w3.org/1999/02/22-rdf-syntax-ns#"
   xmlns:svg="http://www.w3.org/2000/svg"
   xmlns="http://www.w3.org/2000/svg"
   xmlns:sodipodi="http://sodipodi.sourceforge.net/DTD/sodipodi-0.dtd"
   xmlns:inkscape="http://www.inkscape.org/namespaces/inkscape"
   version="1.1"
   id="svg2"
   xml:space="preserve"
   width="70.25547"
   height="33.800133"
   viewBox="0 0 70.25547 33.800133"
   sodipodi:docname="2.ai"><metadata
     id="metadata8"><rdf:RDF><cc:Work
         rdf:about=""><dc:format>image/svg+xml</dc:format><dc:type
           rdf:resource="http://purl.org/dc/dcmitype/StillImage" /></cc:Work></rdf:RDF></metadata><defs
     id="defs6"><clipPath
       clipPathUnits="userSpaceOnUse"
       id="clipPath18"><path
         d="M 0,25.35 H 52.692 V 0 H 0 Z"
         id="path16" /></clipPath></defs><sodipodi:namedview
     pagecolor="#ffffff"
     bordercolor="#666666"
     borderopacity="1"
     objecttolerance="10"
     gridtolerance="10"
     guidetolerance="10"
     inkscape:pageopacity="0"
     inkscape:pageshadow="2"
     inkscape:window-width="640"
     inkscape:window-height="480"
     id="namedview4" /><g
     id="g10"
     inkscape:groupmode="layer"
     inkscape:label="2"
     transform="matrix(1.3333333,0,0,-1.3333333,0,33.800133)"><g
       id="g12"><g
         id="g14"
         clip-path="url(#clipPath18)"><g
           id="g20"
           transform="translate(35.2165,5.8471)"><path
             d="M 0,0 H -17.818"
             style="fill:#ffa700;stroke:#ffa700;stroke-width:3;stroke-linecap:round;stroke-linejoin:round;stroke-miterlimit:10;stroke-dasharray:none;stroke-opacity:1"
             id="path22" /></g><g
           id="g24"
           transform="translate(8.2585,5.8471)"><path
             d="m 0,0 c 0,0 -0.797,-0.072 -1.844,-0.018 -2.001,0.103 -4.915,0.67 -4.915,3.09 0,3.227 3.917,6.375 6.529,6.99 2.332,0.548 7.295,0.852 12.432,4.846 2.152,1.674 4.767,2.662 7.48,2.929 1.01,0.1 2.008,0.148 2.937,0.164 2.948,0.051 5.841,-0.812 8.311,-2.422 l 3.192,-2.082 c 1.449,-0.945 3.107,-1.522 4.828,-1.683 l 1.655,-0.153 c 1.319,-0.123 2.329,-1.23 2.329,-2.556 V 3.149 C 42.934,3.149 42.856,0 36.712,0"
             style="fill:#ffffff;stroke:#ffa700;stroke-width:3;stroke-linecap:round;stroke-linejoin:round;stroke-miterlimit:10;stroke-dasharray:none;stroke-opacity:1"
             id="path26" /></g><g
           id="g28"
           transform="translate(17.2751,5.809)"><path
             d="m 0,0 c 0,-2.38 -1.929,-4.309 -4.309,-4.309 -2.379,0 -4.308,1.929 -4.308,4.309 0,2.379 1.929,4.309 4.308,4.309 C -1.929,4.309 0,2.379 0,0 Z"
             style="fill:#ffffff;stroke:#ffa700;stroke-width:3;stroke-linecap:round;stroke-linejoin:round;stroke-miterlimit:10;stroke-dasharray:none;stroke-opacity:1"
             id="path30" /></g><g
           id="g32"
           transform="translate(44.3103,5.809)"><path
             d="m 0,0 c 0,-2.38 -1.93,-4.309 -4.31,-4.309 -2.378,0 -4.308,1.929 -4.308,4.309 0,2.379 1.93,4.309 4.308,4.309 C -1.93,4.309 0,2.379 0,0 Z"
             style="fill:#ffffff;stroke:#ffa700;stroke-width:3;stroke-linecap:round;stroke-linejoin:round;stroke-miterlimit:10;stroke-dasharray:none;stroke-opacity:1"
             id="path34" /></g><g
           id="g36"
           transform="translate(12.9665,16.9755)"><path
             d="M 0,0 H 17.258"
             style="fill:#ffa700;stroke:#ffa700;stroke-width:3;stroke-linecap:round;stroke-linejoin:round;stroke-miterlimit:10;stroke-dasharray:none;stroke-opacity:1"
             id="path38" /></g></g></g></g></svg>
