<?xml version="1.0" encoding="UTF-8" standalone="no"?>
<svg
   xmlns:dc="http://purl.org/dc/elements/1.1/"
   xmlns:cc="http://creativecommons.org/ns#"
   xmlns:rdf="http://www.w3.org/1999/02/22-rdf-syntax-ns#"
   xmlns:svg="http://www.w3.org/2000/svg"
   xmlns="http://www.w3.org/2000/svg"
   xmlns:sodipodi="http://sodipodi.sourceforge.net/DTD/sodipodi-0.dtd"
   xmlns:inkscape="http://www.inkscape.org/namespaces/inkscape"
   version="1.1"
   id="svg2"
   xml:space="preserve"
   width="44.292801"
   height="33.366135"
   viewBox="0 0 44.292801 33.366135"
   sodipodi:docname="4.ai"><metadata
     id="metadata8"><rdf:RDF><cc:Work
         rdf:about=""><dc:format>image/svg+xml</dc:format><dc:type
           rdf:resource="http://purl.org/dc/dcmitype/StillImage" /></cc:Work></rdf:RDF></metadata><defs
     id="defs6"><clipPath
       clipPathUnits="userSpaceOnUse"
       id="clipPath18"><path
         d="M 0,25.025 H 33.22 V 0 H 0 Z"
         id="path16" /></clipPath><clipPath
       clipPathUnits="userSpaceOnUse"
       id="clipPath34"><path
         d="M 0,25.025 H 33.22 V 0 H 0 Z"
         id="path32" /></clipPath></defs><sodipodi:namedview
     pagecolor="#ffffff"
     bordercolor="#666666"
     borderopacity="1"
     objecttolerance="10"
     gridtolerance="10"
     guidetolerance="10"
     inkscape:pageopacity="0"
     inkscape:pageshadow="2"
     inkscape:window-width="640"
     inkscape:window-height="480"
     id="namedview4" /><g
     id="g10"
     inkscape:groupmode="layer"
     inkscape:label="4"
     transform="matrix(1.3333333,0,0,-1.3333333,0,33.366133)"><g
       id="g12"><g
         id="g14"
         clip-path="url(#clipPath18)"><g
           id="g20"
           transform="translate(5.6332,19.3958)"><path
             d="M 0,0 H 6.438"
             style="fill:none;stroke:#b3bac1;stroke-width:3;stroke-linecap:round;stroke-linejoin:miter;stroke-miterlimit:10;stroke-dasharray:none;stroke-opacity:1"
             id="path22" /></g></g></g><g
       id="g24"
       transform="translate(21.306,19.3958)"><path
         d="M 0,0 H 6.438"
         style="fill:none;stroke:#b3bac1;stroke-width:3;stroke-linecap:round;stroke-linejoin:miter;stroke-miterlimit:10;stroke-dasharray:none;stroke-opacity:1"
         id="path26" /></g><g
       id="g28"><g
         id="g30"
         clip-path="url(#clipPath34)"><g
           id="g36"
           transform="translate(5.6332,13.8812)"><path
             d="m 0,0 -3.574,-6.19 c -1.589,-2.752 0.397,-6.191 3.574,-6.191 3.177,0 5.163,3.439 3.574,6.191 z"
             style="fill:none;stroke:#b3bac1;stroke-width:3;stroke-linecap:butt;stroke-linejoin:miter;stroke-miterlimit:10;stroke-dasharray:none;stroke-opacity:1"
             id="path38" /></g><g
           id="g40"
           transform="translate(27.5863,13.8812)"><path
             d="m 0,0 -3.574,-6.19 c -1.589,-2.752 0.397,-6.191 3.574,-6.191 3.177,0 5.163,3.439 3.574,6.191 z"
             style="fill:none;stroke:#ff8600;stroke-width:3;stroke-linecap:butt;stroke-linejoin:miter;stroke-miterlimit:10;stroke-dasharray:none;stroke-opacity:1"
             id="path42" /></g><g
           id="g44"
           transform="translate(16.7211,13.8812)"><path
             d="M 0,0 V -7.163"
             style="fill:none;stroke:#b3bac1;stroke-width:3;stroke-linecap:round;stroke-linejoin:miter;stroke-miterlimit:10;stroke-dasharray:none;stroke-opacity:1"
             id="path46" /></g><g
           id="g48"
           transform="translate(21.306,18.9071)"><path
             d="m 0,0 c 0,-2.55 -2.067,-4.617 -4.617,-4.617 -2.55,0 -4.618,2.067 -4.618,4.617 0,2.55 2.068,4.618 4.618,4.618 C -2.067,4.618 0,2.55 0,0 Z"
             style="fill:none;stroke:#b3bac1;stroke-width:3;stroke-linecap:butt;stroke-linejoin:miter;stroke-miterlimit:10;stroke-dasharray:none;stroke-opacity:1"
             id="path50" /></g></g></g></g></svg>
