<?xml version="1.0" encoding="UTF-8" standalone="no"?>
<svg
   xmlns:dc="http://purl.org/dc/elements/1.1/"
   xmlns:cc="http://creativecommons.org/ns#"
   xmlns:rdf="http://www.w3.org/1999/02/22-rdf-syntax-ns#"
   xmlns:svg="http://www.w3.org/2000/svg"
   xmlns="http://www.w3.org/2000/svg"
   xmlns:sodipodi="http://sodipodi.sourceforge.net/DTD/sodipodi-0.dtd"
   xmlns:inkscape="http://www.inkscape.org/namespaces/inkscape"
   version="1.1"
   id="svg2"
   xml:space="preserve"
   width="39.4352"
   height="38.072933"
   viewBox="0 0 39.4352 38.072933"
   sodipodi:docname="5.ai"><metadata
     id="metadata8"><rdf:RDF><cc:Work
         rdf:about=""><dc:format>image/svg+xml</dc:format><dc:type
           rdf:resource="http://purl.org/dc/dcmitype/StillImage" /></cc:Work></rdf:RDF></metadata><defs
     id="defs6"><clipPath
       clipPathUnits="userSpaceOnUse"
       id="clipPath18"><path
         d="M 0,28.555 H 29.576 V 0 H 0 Z"
         id="path16" /></clipPath></defs><sodipodi:namedview
     pagecolor="#ffffff"
     bordercolor="#666666"
     borderopacity="1"
     objecttolerance="10"
     gridtolerance="10"
     guidetolerance="10"
     inkscape:pageopacity="0"
     inkscape:pageshadow="2"
     inkscape:window-width="640"
     inkscape:window-height="480"
     id="namedview4" /><g
     id="g10"
     inkscape:groupmode="layer"
     inkscape:label="5"
     transform="matrix(1.3333333,0,0,-1.3333333,0,38.072933)"><g
       id="g12"><g
         id="g14"
         clip-path="url(#clipPath18)"><g
           id="g20"
           transform="translate(20.8674,20.3377)"><path
             d="M 0,0 5.9,-1.828 C 7.147,-2.214 7.617,-3.732 6.807,-4.755 L 2.973,-9.599 C 2.708,-9.934 2.566,-10.35 2.572,-10.776 l 0.084,-6.177 c 0.018,-1.305 -1.28,-2.221 -2.503,-1.767 l -5.791,2.15 c -0.401,0.149 -0.84,0.155 -1.244,0.017 l -5.849,-1.989 c -1.235,-0.42 -2.507,0.531 -2.454,1.835 l 0.256,6.172 c 0.017,0.427 -0.113,0.847 -0.368,1.189 l -3.7,4.947 c -0.781,1.045 -0.269,2.549 0.987,2.901 l 5.949,1.665 c 0.412,0.115 0.77,0.368 1.017,0.717 l 3.562,5.047 c 0.753,1.066 2.341,1.044 3.064,-0.042 L -0.997,0.745 C -0.76,0.39 -0.408,0.126 0,0 Z"
             style="fill:none;stroke:#b3bac1;stroke-width:3;stroke-linecap:round;stroke-linejoin:round;stroke-miterlimit:10;stroke-dasharray:none;stroke-opacity:1"
             id="path22" /></g><g
           id="g24"
           transform="translate(17.596,11.3289)"><path
             d="M 0,0 C -1.171,-1.532 -3.362,-1.824 -4.894,-0.653 -6.425,0.518 -6.717,2.709 -5.546,4.24 -4.375,5.772 -2.185,6.064 -0.653,4.894 0.878,3.723 1.171,1.532 0,0 Z"
             style="fill:none;stroke:#ff8600;stroke-width:3;stroke-linecap:butt;stroke-linejoin:miter;stroke-miterlimit:10;stroke-dasharray:none;stroke-opacity:1"
             id="path26" /></g></g></g></g></svg>
