<?xml version="1.0" encoding="UTF-8" standalone="no"?>
<svg
   xmlns:dc="http://purl.org/dc/elements/1.1/"
   xmlns:cc="http://creativecommons.org/ns#"
   xmlns:rdf="http://www.w3.org/1999/02/22-rdf-syntax-ns#"
   xmlns:svg="http://www.w3.org/2000/svg"
   xmlns="http://www.w3.org/2000/svg"
   xmlns:sodipodi="http://sodipodi.sourceforge.net/DTD/sodipodi-0.dtd"
   xmlns:inkscape="http://www.inkscape.org/namespaces/inkscape"
   version="1.1"
   id="svg2"
   xml:space="preserve"
   width="32.333332"
   height="32.333332"
   viewBox="0 0 32.333332 32.333332"
   sodipodi:docname="3.ai"><metadata
     id="metadata8"><rdf:RDF><cc:Work
         rdf:about=""><dc:format>image/svg+xml</dc:format><dc:type
           rdf:resource="http://purl.org/dc/dcmitype/StillImage" /></cc:Work></rdf:RDF></metadata><defs
     id="defs6"><clipPath
       clipPathUnits="userSpaceOnUse"
       id="clipPath18"><path
         d="M 0,24.25 H 24.25 V 0 H 0 Z"
         id="path16" /></clipPath></defs><sodipodi:namedview
     pagecolor="#ffffff"
     bordercolor="#666666"
     borderopacity="1"
     objecttolerance="10"
     gridtolerance="10"
     guidetolerance="10"
     inkscape:pageopacity="0"
     inkscape:pageshadow="2"
     inkscape:window-width="640"
     inkscape:window-height="480"
     id="namedview4" /><g
     id="g10"
     inkscape:groupmode="layer"
     inkscape:label="3"
     transform="matrix(1.3333333,0,0,-1.3333333,0,32.333333)"><g
       id="g12"><g
         id="g14"
         clip-path="url(#clipPath18)"><g
           id="g20"
           transform="translate(23.25,12.1248)"><path
             d="m 0,0 c 0,-6.144 -4.981,-11.125 -11.125,-11.125 -6.144,0 -11.125,4.981 -11.125,11.125 0,6.145 4.981,11.125 11.125,11.125 C -4.981,11.125 0,6.145 0,0 Z"
             style="fill:none;stroke:#a0a6ad;stroke-width:2;stroke-linecap:butt;stroke-linejoin:miter;stroke-miterlimit:10;stroke-dasharray:none;stroke-opacity:1"
             id="path22" /></g><g
           id="g24"
           transform="translate(20.4629,12.1248)"><path
             d="m 0,0 c 0,-4.605 -3.733,-8.338 -8.338,-8.338 -4.605,0 -8.338,3.733 -8.338,8.338 0,4.605 3.733,8.338 8.338,8.338 C -3.733,8.338 0,4.605 0,0 Z"
             style="fill:none;stroke:#a0a6ad;stroke-width:2;stroke-linecap:butt;stroke-linejoin:miter;stroke-miterlimit:10;stroke-dasharray:none;stroke-opacity:1"
             id="path26" /></g><g
           id="g28"
           transform="translate(15.2866,12.1248)"><path
             d="m 0,0 c 0,-1.746 -1.416,-3.162 -3.162,-3.162 -1.746,0 -3.161,1.416 -3.161,3.162 0,1.747 1.415,3.162 3.161,3.162 C -1.416,3.162 0,1.747 0,0 Z"
             style="fill:none;stroke:#a0a6ad;stroke-width:2;stroke-linecap:butt;stroke-linejoin:miter;stroke-miterlimit:10;stroke-dasharray:none;stroke-opacity:1"
             id="path30" /></g><g
           id="g32"
           transform="translate(12.769,12.1248)"><path
             d="M 0,0 C 0,-0.355 -0.288,-0.644 -0.644,-0.644 -1,-0.644 -1.288,-0.355 -1.288,0 -1.288,0.356 -1,0.644 -0.644,0.644 -0.288,0.644 0,0.356 0,0"
             style="fill:#a0a6ad;fill-opacity:1;fill-rule:nonzero;stroke:none"
             id="path34" /></g><g
           id="g36"
           transform="translate(8.9634,11.4808)"><path
             d="M 0,0 -6.987,-2.73"
             style="fill:none;stroke:#a0a6ad;stroke-width:1;stroke-linecap:butt;stroke-linejoin:miter;stroke-miterlimit:10;stroke-dasharray:none;stroke-opacity:1"
             id="path38" /></g><g
           id="g40"
           transform="translate(15.4663,11.4808)"><path
             d="M 0,0 6.987,-2.73"
             style="fill:none;stroke:#a0a6ad;stroke-width:1;stroke-linecap:butt;stroke-linejoin:miter;stroke-miterlimit:10;stroke-dasharray:none;stroke-opacity:1"
             id="path42" /></g><g
           id="g44"
           transform="translate(12.0312,0.9998)"><path
             d="M 0,0 0.094,7.963"
             style="fill:none;stroke:#a0a6ad;stroke-width:1;stroke-linecap:butt;stroke-linejoin:miter;stroke-miterlimit:10;stroke-dasharray:none;stroke-opacity:1"
             id="path46" /></g><g
           id="g48"
           transform="translate(5.4697,21.1488)"><path
             d="M 0,0 4.782,-6.574"
             style="fill:none;stroke:#a0a6ad;stroke-width:1;stroke-linecap:butt;stroke-linejoin:miter;stroke-miterlimit:10;stroke-dasharray:none;stroke-opacity:1"
             id="path50" /></g><g
           id="g52"
           transform="translate(18.4956,21.1488)"><path
             d="M 0,0 -4.782,-6.574"
             style="fill:none;stroke:#a0a6ad;stroke-width:1;stroke-linecap:butt;stroke-linejoin:miter;stroke-miterlimit:10;stroke-dasharray:none;stroke-opacity:1"
             id="path54" /></g></g></g></g></svg>
