<?xml version="1.0" encoding="UTF-8" standalone="no"?>
<svg
   xmlns:dc="http://purl.org/dc/elements/1.1/"
   xmlns:cc="http://creativecommons.org/ns#"
   xmlns:rdf="http://www.w3.org/1999/02/22-rdf-syntax-ns#"
   xmlns:svg="http://www.w3.org/2000/svg"
   xmlns="http://www.w3.org/2000/svg"
   xmlns:sodipodi="http://sodipodi.sourceforge.net/DTD/sodipodi-0.dtd"
   xmlns:inkscape="http://www.inkscape.org/namespaces/inkscape"
   version="1.1"
   id="svg2"
   xml:space="preserve"
   width="61.110931"
   height="41.447334"
   viewBox="0 0 61.110931 41.447334"
   sodipodi:docname="2.ai"><metadata
     id="metadata8"><rdf:RDF><cc:Work
         rdf:about=""><dc:format>image/svg+xml</dc:format><dc:type
           rdf:resource="http://purl.org/dc/dcmitype/StillImage" /></cc:Work></rdf:RDF></metadata><defs
     id="defs6"><clipPath
       clipPathUnits="userSpaceOnUse"
       id="clipPath18"><path
         d="M 0,31.086 H 45.833 V 0 H 0 Z"
         id="path16" /></clipPath></defs><sodipodi:namedview
     pagecolor="#ffffff"
     bordercolor="#666666"
     borderopacity="1"
     objecttolerance="10"
     gridtolerance="10"
     guidetolerance="10"
     inkscape:pageopacity="0"
     inkscape:pageshadow="2"
     inkscape:window-width="640"
     inkscape:window-height="480"
     id="namedview4" /><g
     id="g10"
     inkscape:groupmode="layer"
     inkscape:label="2"
     transform="matrix(1.3333333,0,0,-1.3333333,0,41.447333)"><g
       id="g12"><g
         id="g14"
         clip-path="url(#clipPath18)"><g
           id="g20"
           transform="translate(10.1766,4.4822)"><path
             d="m 0,0 c 0,-1.923 -1.56,-3.482 -3.482,-3.482 -1.923,0 -3.483,1.559 -3.483,3.482 0,1.923 1.56,3.481 3.483,3.481 C -1.56,3.481 0,1.923 0,0 Z"
             style="fill:none;stroke:#a0a6ad;stroke-width:2;stroke-linecap:butt;stroke-linejoin:miter;stroke-miterlimit:10;stroke-dasharray:none;stroke-opacity:1"
             id="path22" /></g><g
           id="g24"
           transform="translate(7.8006,4.5945)"><path
             d="m 0,0 c 0,-0.61 -0.495,-1.105 -1.106,-1.105 -0.612,0 -1.107,0.495 -1.107,1.105 0,0.611 0.495,1.106 1.107,1.106 C -0.495,1.106 0,0.611 0,0 Z"
             style="fill:none;stroke:#a0a6ad;stroke-width:2;stroke-linecap:butt;stroke-linejoin:miter;stroke-miterlimit:10;stroke-dasharray:none;stroke-opacity:1"
             id="path26" /></g><g
           id="g28"
           transform="translate(17.5497,4.4822)"><path
             d="m 0,0 c 0,-1.923 -1.559,-3.482 -3.481,-3.482 -1.923,0 -3.483,1.559 -3.483,3.482 0,1.923 1.56,3.481 3.483,3.481 C -1.559,3.481 0,1.923 0,0 Z"
             style="fill:none;stroke:#a0a6ad;stroke-width:2;stroke-linecap:butt;stroke-linejoin:miter;stroke-miterlimit:10;stroke-dasharray:none;stroke-opacity:1"
             id="path30" /></g><g
           id="g32"
           transform="translate(15.1737,4.5945)"><path
             d="m 0,0 c 0,-0.61 -0.495,-1.105 -1.105,-1.105 -0.612,0 -1.107,0.495 -1.107,1.105 0,0.611 0.495,1.106 1.107,1.106 C -0.495,1.106 0,0.611 0,0 Z"
             style="fill:none;stroke:#a0a6ad;stroke-width:2;stroke-linecap:butt;stroke-linejoin:miter;stroke-miterlimit:10;stroke-dasharray:none;stroke-opacity:1"
             id="path34" /></g><g
           id="g36"
           transform="translate(40.6542,4.4822)"><path
             d="m 0,0 c 0,-1.923 -1.559,-3.482 -3.481,-3.482 -1.923,0 -3.483,1.559 -3.483,3.482 0,1.923 1.56,3.481 3.483,3.481 C -1.559,3.481 0,1.923 0,0 Z"
             style="fill:none;stroke:#a0a6ad;stroke-width:2;stroke-linecap:butt;stroke-linejoin:miter;stroke-miterlimit:10;stroke-dasharray:none;stroke-opacity:1"
             id="path38" /></g><g
           id="g40"
           transform="translate(38.2782,4.5945)"><path
             d="m 0,0 c 0,-0.61 -0.495,-1.105 -1.105,-1.105 -0.612,0 -1.107,0.495 -1.107,1.105 0,0.611 0.495,1.106 1.107,1.106 C -0.495,1.106 0,0.611 0,0 Z"
             style="fill:none;stroke:#a0a6ad;stroke-width:2;stroke-linecap:butt;stroke-linejoin:miter;stroke-miterlimit:10;stroke-dasharray:none;stroke-opacity:1"
             id="path42" /></g><g
           id="g44"
           transform="translate(33.6903,4.8299)"><path
             d="M 0,0 H -15.936"
             style="fill:none;stroke:#a0a6ad;stroke-width:2;stroke-linecap:butt;stroke-linejoin:miter;stroke-miterlimit:10;stroke-dasharray:none;stroke-opacity:1"
             id="path46" /></g><path
           d="m 26.829,8.681 h -3.667 v 8.562 h 3.667 z"
           style="fill:none;stroke:#a0a6ad;stroke-width:2;stroke-linecap:butt;stroke-linejoin:miter;stroke-miterlimit:10;stroke-dasharray:none;stroke-opacity:1"
           id="path48" /><g
           id="g50"
           transform="translate(26.829,30.0857)"><path
             d="M 0,0 V -21.404"
             style="fill:none;stroke:#a0a6ad;stroke-width:2;stroke-linecap:round;stroke-linejoin:miter;stroke-miterlimit:10;stroke-dasharray:none;stroke-opacity:1"
             id="path52" /></g><g
           id="g54"
           transform="translate(21.6669,24.8211)"><path
             d="M 0,0 3.37,-3.369 V -7.476"
             style="fill:none;stroke:#a0a6ad;stroke-width:2;stroke-linecap:round;stroke-linejoin:miter;stroke-miterlimit:10;stroke-dasharray:none;stroke-opacity:1"
             id="path56" /></g><g
           id="g58"
           transform="translate(9.1932,8.6814)"><path
             d="M 0,0 5.653,3.093"
             style="fill:none;stroke:#a0a6ad;stroke-width:2;stroke-linecap:round;stroke-linejoin:miter;stroke-miterlimit:10;stroke-dasharray:none;stroke-opacity:1"
             id="path60" /></g><g
           id="g62"
           transform="translate(0.9999,8.6814)"><path
             d="m 0,0 h 29.803 l 1.881,0.892 c 2.883,1.367 6.285,1.036 8.85,-0.862 l 1.664,-1.231 c 0.312,-0.62 1.144,-0.745 1.635,-0.254 V 1.74 c 0,0.815 -0.66,1.476 -1.475,1.476 v 2.539 l 0.176,0.107 c 0.807,0.493 1.299,1.371 1.299,2.318 v 8.204 c 0.012,1.728 -1.387,3.136 -3.115,3.136 H 39.173 29.024 c -1.798,0 -3.256,-1.458 -3.256,-3.257 L 25.768,0"
             style="fill:none;stroke:#a0a6ad;stroke-width:2;stroke-linecap:round;stroke-linejoin:miter;stroke-miterlimit:10;stroke-dasharray:none;stroke-opacity:1"
             id="path64" /></g><g
           id="g66"
           transform="translate(44.8329,19.8133)"><path
             d="M 0,0 H -5.991 L -7.66,1.198 h -2.202 v -11.06"
             style="fill:none;stroke:#a0a6ad;stroke-width:2;stroke-linecap:butt;stroke-linejoin:miter;stroke-miterlimit:10;stroke-dasharray:none;stroke-opacity:1"
             id="path68" /></g><g
           id="g70"
           transform="translate(34.203,28.201)"><path
             d="M 0,0 V -7.189"
             style="fill:none;stroke:#a0a6ad;stroke-width:2;stroke-linecap:butt;stroke-linejoin:miter;stroke-miterlimit:10;stroke-dasharray:none;stroke-opacity:1"
             id="path72" /></g><g
           id="g74"
           transform="translate(36.5995,28.201)"><path
             d="M 0,0 V -17.543"
             style="fill:none;stroke:#a0a6ad;stroke-width:2;stroke-linecap:butt;stroke-linejoin:miter;stroke-miterlimit:10;stroke-dasharray:none;stroke-opacity:1"
             id="path76" /></g><g
           id="g78"
           transform="translate(28.7108,15.6346)"><path
             d="M 0,0 H -0.315 V 2.42 H 2.419 C 2.419,1.084 1.336,0 0,0 Z"
             style="fill:none;stroke:#a0a6ad;stroke-width:2;stroke-linecap:butt;stroke-linejoin:miter;stroke-miterlimit:10;stroke-dasharray:none;stroke-opacity:1"
             id="path80" /></g><g
           id="g82"
           transform="translate(28.119,13.6687)"><path
             d="M 0,0 H 2.827"
             style="fill:none;stroke:#a0a6ad;stroke-width:2;stroke-linecap:butt;stroke-linejoin:miter;stroke-miterlimit:10;stroke-dasharray:none;stroke-opacity:1"
             id="path84" /></g><g
           id="g86"
           transform="translate(28.119,11.702)"><path
             d="M 0,0 H 2.827"
             style="fill:none;stroke:#a0a6ad;stroke-width:2;stroke-linecap:butt;stroke-linejoin:miter;stroke-miterlimit:10;stroke-dasharray:none;stroke-opacity:1"
             id="path88" /></g><g
           id="g90"
           transform="translate(44.8329,17.5633)"><path
             d="M 0,0 H -4.179"
             style="fill:none;stroke:#a0a6ad;stroke-width:2;stroke-linecap:round;stroke-linejoin:miter;stroke-miterlimit:10;stroke-dasharray:none;stroke-opacity:1"
             id="path92" /></g><g
           id="g94"
           transform="translate(44.8329,15.8504)"><path
             d="M 0,0 H -2.52"
             style="fill:none;stroke:#a0a6ad;stroke-width:2;stroke-linecap:round;stroke-linejoin:miter;stroke-miterlimit:10;stroke-dasharray:none;stroke-opacity:1"
             id="path96" /></g><g
           id="g98"
           transform="translate(28.9794,24.8211)"><path
             d="M 0,0 H 4.711"
             style="fill:none;stroke:#a0a6ad;stroke-width:2;stroke-linecap:round;stroke-linejoin:miter;stroke-miterlimit:10;stroke-dasharray:none;stroke-opacity:1"
             id="path100" /></g><g
           id="g102"
           transform="translate(28.3954,22.7937)"><path
             d="M 0,0 H 5.295"
             style="fill:none;stroke:#a0a6ad;stroke-width:2;stroke-linecap:round;stroke-linejoin:miter;stroke-miterlimit:10;stroke-dasharray:none;stroke-opacity:1"
             id="path104" /></g></g></g></g></svg>
