<?xml version="1.0" encoding="UTF-8" standalone="no"?>
<svg
   xmlns:dc="http://purl.org/dc/elements/1.1/"
   xmlns:cc="http://creativecommons.org/ns#"
   xmlns:rdf="http://www.w3.org/1999/02/22-rdf-syntax-ns#"
   xmlns:svg="http://www.w3.org/2000/svg"
   xmlns="http://www.w3.org/2000/svg"
   xmlns:sodipodi="http://sodipodi.sourceforge.net/DTD/sodipodi-0.dtd"
   xmlns:inkscape="http://www.inkscape.org/namespaces/inkscape"
   version="1.1"
   id="svg2"
   xml:space="preserve"
   width="52.951069"
   height="22.339733"
   viewBox="0 0 52.951069 22.339733"
   sodipodi:docname="1.ai"><metadata
     id="metadata8"><rdf:RDF><cc:Work
         rdf:about=""><dc:format>image/svg+xml</dc:format><dc:type
           rdf:resource="http://purl.org/dc/dcmitype/StillImage" /></cc:Work></rdf:RDF></metadata><defs
     id="defs6"><clipPath
       clipPathUnits="userSpaceOnUse"
       id="clipPath22"><path
         d="M 0,16.755 H 39.713 V 0 H 0 Z"
         id="path20" /></clipPath></defs><sodipodi:namedview
     pagecolor="#ffffff"
     bordercolor="#666666"
     borderopacity="1"
     objecttolerance="10"
     gridtolerance="10"
     guidetolerance="10"
     inkscape:pageopacity="0"
     inkscape:pageshadow="2"
     inkscape:window-width="640"
     inkscape:window-height="480"
     id="namedview4" /><g
     id="g10"
     inkscape:groupmode="layer"
     inkscape:label="1"
     transform="matrix(1.3333333,0,0,-1.3333333,0,22.339733)"><g
       id="g12"
       transform="translate(29.2428,4.0281)"><path
         d="M 0,0 H -16.77"
         style="fill:none;stroke:#a0a6ad;stroke-width:2;stroke-linecap:butt;stroke-linejoin:miter;stroke-miterlimit:10;stroke-dasharray:none;stroke-opacity:1"
         id="path14" /></g><g
       id="g16"><g
         id="g18"
         clip-path="url(#clipPath22)"><g
           id="g24"
           transform="translate(5.8751,4.0281)"><path
             d="m 0,0 c 0,0 -4.924,0.148 -4.875,2.807 0.027,1.47 0.024,2.956 0.017,3.99 -0.006,0.76 0.609,1.377 1.369,1.377 h 2.012 c 0,0 6.303,3.742 13.048,3.545 4.146,-0.378 4.61,-0.753 8.695,-3.348 1.458,-0.927 5.343,-1.835 7.788,-2.099 3.001,-0.323 5.21,-2.6 4.715,-5.577 C 32.757,0.627 32.688,0.068 32.674,0 h -3.2"
             style="fill:none;stroke:#a0a6ad;stroke-width:2;stroke-linecap:butt;stroke-linejoin:miter;stroke-miterlimit:10;stroke-dasharray:none;stroke-opacity:1"
             id="path26" /></g><g
           id="g28"
           transform="translate(2.7784,7.197)"><path
             d="m 0,0 h -0.984 v 2.684 h 1.7 C 1.26,2.684 1.7,2.244 1.7,1.7 1.7,0.761 0.939,0 0,0 Z"
             style="fill:none;stroke:#a0a6ad;stroke-width:2;stroke-linecap:butt;stroke-linejoin:miter;stroke-miterlimit:10;stroke-dasharray:none;stroke-opacity:1"
             id="path30" /></g><g
           id="g32"
           transform="translate(12.1652,4.0281)"><path
             d="m 0,0 c 0,-1.672 -1.355,-3.028 -3.028,-3.028 -1.673,0 -3.028,1.356 -3.028,3.028 0,1.672 1.355,3.028 3.028,3.028 C -1.355,3.028 0,1.672 0,0 Z"
             style="fill:none;stroke:#a0a6ad;stroke-width:2;stroke-linecap:butt;stroke-linejoin:miter;stroke-miterlimit:10;stroke-dasharray:none;stroke-opacity:1"
             id="path34" /></g><g
           id="g36"
           transform="translate(9.9493,4.1023)"><path
             d="m 0,0 c 0,-0.449 -0.364,-0.812 -0.812,-0.812 -0.449,0 -0.813,0.363 -0.813,0.812 0,0.449 0.364,0.812 0.813,0.812 C -0.364,0.812 0,0.449 0,0 Z"
             style="fill:none;stroke:#a0a6ad;stroke-width:1;stroke-linecap:butt;stroke-linejoin:miter;stroke-miterlimit:10;stroke-dasharray:none;stroke-opacity:1"
             id="path38" /></g><g
           id="g40"
           transform="translate(34.9918,4.0281)"><path
             d="m 0,0 c 0,-1.672 -1.356,-3.028 -3.028,-3.028 -1.673,0 -3.029,1.356 -3.029,3.028 0,1.672 1.356,3.028 3.029,3.028 C -1.356,3.028 0,1.672 0,0 Z"
             style="fill:none;stroke:#a0a6ad;stroke-width:2;stroke-linecap:butt;stroke-linejoin:miter;stroke-miterlimit:10;stroke-dasharray:none;stroke-opacity:1"
             id="path42" /></g><g
           id="g44"
           transform="translate(32.776,4.1023)"><path
             d="m 0,0 c 0,-0.449 -0.364,-0.812 -0.812,-0.812 -0.449,0 -0.813,0.363 -0.813,0.812 0,0.449 0.364,0.812 0.813,0.812 C -0.364,0.812 0,0.449 0,0 Z"
             style="fill:none;stroke:#a0a6ad;stroke-width:1;stroke-linecap:butt;stroke-linejoin:miter;stroke-miterlimit:10;stroke-dasharray:none;stroke-opacity:1"
             id="path46" /></g><g
           id="g48"
           transform="translate(7.13,13.5418)"><path
             d="M 0,0 C 0,0 1.273,-3.112 3.439,-3.112 H 25.636"
             style="fill:none;stroke:#a0a6ad;stroke-width:2;stroke-linecap:round;stroke-linejoin:miter;stroke-miterlimit:10;stroke-dasharray:none;stroke-opacity:1"
             id="path50" /></g><g
           id="g52"
           transform="translate(9.9493,7.4846)"><path
             d="M 0,0 1.411,7.509"
             style="fill:none;stroke:#a0a6ad;stroke-width:2;stroke-linecap:round;stroke-linejoin:miter;stroke-miterlimit:10;stroke-dasharray:none;stroke-opacity:1"
             id="path54" /></g><g
           id="g56"
           transform="translate(19.4391,4.408)"><path
             d="m 0,0 v 6.382 l -1.622,4.579"
             style="fill:none;stroke:#a0a6ad;stroke-width:2;stroke-linecap:round;stroke-linejoin:miter;stroke-miterlimit:10;stroke-dasharray:none;stroke-opacity:1"
             id="path58" /></g><g
           id="g60"
           transform="translate(37.7584,7.8137)"><path
             d="m 0,0 c -0.103,-0.511 -0.601,-0.841 -1.112,-0.738 -0.511,0.103 -0.841,0.6 -0.738,1.112 0.103,0.51 0.601,0.841 1.112,0.738"
             style="fill:none;stroke:#a0a6ad;stroke-width:2;stroke-linecap:butt;stroke-linejoin:miter;stroke-miterlimit:10;stroke-dasharray:none;stroke-opacity:1"
             id="path62" /></g></g></g></g></svg>
