<?xml version="1.0" encoding="UTF-8" standalone="no"?>
<svg
   xmlns:dc="http://purl.org/dc/elements/1.1/"
   xmlns:cc="http://creativecommons.org/ns#"
   xmlns:rdf="http://www.w3.org/1999/02/22-rdf-syntax-ns#"
   xmlns:svg="http://www.w3.org/2000/svg"
   xmlns="http://www.w3.org/2000/svg"
   xmlns:sodipodi="http://sodipodi.sourceforge.net/DTD/sodipodi-0.dtd"
   xmlns:inkscape="http://www.inkscape.org/namespaces/inkscape"
   version="1.1"
   id="svg2"
   xml:space="preserve"
   width="59.311733"
   height="44.312134"
   viewBox="0 0 59.311733 44.312134"
   sodipodi:docname="1.ai"><metadata
     id="metadata8"><rdf:RDF><cc:Work
         rdf:about=""><dc:format>image/svg+xml</dc:format><dc:type
           rdf:resource="http://purl.org/dc/dcmitype/StillImage" /></cc:Work></rdf:RDF></metadata><defs
     id="defs6"><clipPath
       clipPathUnits="userSpaceOnUse"
       id="clipPath26"><path
         d="M 0,33.234 H 44.484 V 0 H 0 Z"
         id="path24" /></clipPath></defs><sodipodi:namedview
     pagecolor="#ffffff"
     bordercolor="#666666"
     borderopacity="1"
     objecttolerance="10"
     gridtolerance="10"
     guidetolerance="10"
     inkscape:pageopacity="0"
     inkscape:pageshadow="2"
     inkscape:window-width="640"
     inkscape:window-height="480"
     id="namedview4" /><g
     id="g10"
     inkscape:groupmode="layer"
     inkscape:label="1"
     transform="matrix(1.3333333,0,0,-1.3333333,0,44.312133)"><g
       id="g12"
       transform="translate(7.174,26.0665)"><path
         d="M 0,0 H 8.838"
         style="fill:none;stroke:#b3bac1;stroke-width:3;stroke-linecap:round;stroke-linejoin:miter;stroke-miterlimit:10;stroke-dasharray:none;stroke-opacity:1"
         id="path14" /></g><g
       id="g16"
       transform="translate(28.6886,26.0665)"><path
         d="M 0,0 H 8.838"
         style="fill:none;stroke:#b3bac1;stroke-width:3;stroke-linecap:round;stroke-linejoin:miter;stroke-miterlimit:10;stroke-dasharray:none;stroke-opacity:1"
         id="path18" /></g><g
       id="g20"><g
         id="g22"
         clip-path="url(#clipPath26)"><g
           id="g28"
           transform="translate(7.174,18.4962)"><path
             d="m 0,0 -4.907,-8.498 c -2.18,-3.777 0.546,-8.498 4.907,-8.498 4.361,0 7.087,4.721 4.906,8.498 z"
             style="fill:none;stroke:#b3bac1;stroke-width:3;stroke-linecap:butt;stroke-linejoin:miter;stroke-miterlimit:10;stroke-dasharray:none;stroke-opacity:1"
             id="path30" /></g><g
           id="g32"
           transform="translate(37.3102,18.4962)"><path
             d="m 0,0 -4.907,-8.498 c -2.18,-3.777 0.546,-8.498 4.907,-8.498 4.361,0 7.087,4.721 4.906,8.498 z"
             style="fill:none;stroke:#ff8600;stroke-width:3;stroke-linecap:butt;stroke-linejoin:miter;stroke-miterlimit:10;stroke-dasharray:none;stroke-opacity:1"
             id="path34" /></g><g
           id="g36"
           transform="translate(22.3942,18.4962)"><path
             d="M 0,0 V -9.832"
             style="fill:none;stroke:#b3bac1;stroke-width:3;stroke-linecap:round;stroke-linejoin:miter;stroke-miterlimit:10;stroke-dasharray:none;stroke-opacity:1"
             id="path38" /></g><g
           id="g40"
           transform="translate(28.6886,25.3956)"><path
             d="m 0,0 c 0,-3.5 -2.837,-6.338 -6.338,-6.338 -3.501,0 -6.339,2.838 -6.339,6.338 0,3.5 2.838,6.338 6.339,6.338 C -2.837,6.338 0,3.5 0,0"
             style="fill:#ffffff;fill-opacity:1;fill-rule:nonzero;stroke:none"
             id="path42" /></g><g
           id="g44"
           transform="translate(28.6886,25.3956)"><path
             d="m 0,0 c 0,-3.5 -2.837,-6.338 -6.338,-6.338 -3.501,0 -6.339,2.838 -6.339,6.338 0,3.5 2.838,6.338 6.339,6.338 C -2.837,6.338 0,3.5 0,0 Z"
             style="fill:none;stroke:#b3bac1;stroke-width:3;stroke-linecap:butt;stroke-linejoin:miter;stroke-miterlimit:10;stroke-dasharray:none;stroke-opacity:1"
             id="path46" /></g><g
           id="g48"
           transform="translate(24.7877,25.3956)"><path
             d="m 0,0 c 0,-1.346 -1.091,-2.438 -2.438,-2.438 -1.346,0 -2.437,1.092 -2.437,2.438 0,1.346 1.091,2.438 2.437,2.438 C -1.091,2.438 0,1.346 0,0"
             style="fill:#b3bac1;fill-opacity:1;fill-rule:nonzero;stroke:none"
             id="path50" /></g></g></g></g></svg>
