<?xml version="1.0" encoding="UTF-8"?>
<svg xmlns="http://www.w3.org/2000/svg" xmlns:xlink="http://www.w3.org/1999/xlink" width="16pt" height="15pt" viewBox="0 0 16 15" version="1.1">
<g id="surface1">
<path style=" stroke:none;fill-rule:nonzero;fill:#fff;fill-opacity:1;" d="M 8 0 C 5.800781 0 4 1.800781 4 4 L 4 6 C 4 6.140625 4.027344 6.273438 4.042969 6.410156 C 1.679688 7.300781 0 9.578125 0 12.25 L 0 15 L 16 15 L 16 12.25 C 16 9.578125 14.320313 7.300781 11.957031 6.410156 C 11.972656 6.273438 12 6.140625 12 6 L 12 4 C 12 1.800781 10.199219 0 8 0 M 8 1.5 C 9.378906 1.5 10.5 2.621094 10.5 4 L 10.5 5.980469 C 10.496094 6.011719 10.492188 6.042969 10.488281 6.074219 C 10.480469 6.132813 10.472656 6.191406 10.464844 6.253906 L 10.347656 7.402344 L 11.429688 7.8125 C 13.265625 8.507813 14.5 10.292969 14.5 12.25 L 14.5 13.5 L 1.5 13.5 L 1.5 12.25 C 1.5 10.292969 2.734375 8.507813 4.570313 7.8125 L 5.652344 7.402344 L 5.535156 6.253906 C 5.527344 6.191406 5.519531 6.132813 5.511719 6.074219 C 5.507813 6.042969 5.5 6.011719 5.5 6 L 5.5 4 C 5.5 2.621094 6.621094 1.5 8 1.5 "/>
</g>
</svg>
