<?xml version="1.0" encoding="UTF-8"?>
<svg xmlns="http://www.w3.org/2000/svg" xmlns:xlink="http://www.w3.org/1999/xlink" width="33.81pt" height="32.62pt" viewBox="0 0 33.81 32.62" version="1.1">
<defs>
<clipPath id="clip1">
  <path d="M 0 0 L 33.808594 0 L 33.808594 32.621094 L 0 32.621094 Z M 0 0 "/>
</clipPath>
</defs>
<g id="surface1">
<g clip-path="url(#clip1)" clip-rule="nonzero">
<path style="fill:none;stroke-width:30;stroke-linecap:round;stroke-linejoin:round;stroke:rgb(70.199585%,72.898865%,75.299072%);stroke-opacity:1;stroke-miterlimit:10;" d="M 239.492188 233.348438 L 307.890625 212.176563 C 322.34375 207.684375 327.773438 190.10625 318.398438 178.23125 L 273.945313 122.098438 C 270.898438 118.23125 269.257813 113.3875 269.296875 108.426563 L 270.273438 36.825 C 270.507813 21.707813 255.46875 11.121875 241.289063 16.35625 L 174.140625 41.278125 C 169.492188 42.996875 164.414063 43.075 159.726563 41.473438 L 91.914063 18.426563 C 77.617188 13.54375 62.851563 24.598438 63.476563 39.676563 L 66.445313 111.239063 C 66.640625 116.2 65.117188 121.04375 62.1875 125.028125 L 19.296875 182.371875 C 10.234375 194.48125 16.171875 211.903125 30.742188 216.004688 L 99.6875 235.301563 C 104.453125 236.629688 108.632813 239.559375 111.484375 243.621875 L 152.773438 302.098438 C 161.484375 314.442188 179.882813 314.207813 188.28125 301.629688 L 227.929688 241.98125 C 230.703125 237.879688 234.765625 234.79375 239.492188 233.348438 Z M 239.492188 233.348438 " transform="matrix(0.1,0,0,-0.1,0,32.62)"/>
<path style="fill:none;stroke-width:30;stroke-linecap:butt;stroke-linejoin:miter;stroke:rgb(100%,52.49939%,0%);stroke-opacity:1;stroke-miterlimit:10;" d="M 201.5625 128.934375 C 188.007813 111.160938 162.617188 107.801563 144.84375 121.35625 C 127.109375 134.95 123.710938 160.340625 137.265625 178.075 C 150.859375 195.848438 176.25 199.207813 194.023438 185.653125 C 211.757813 172.098438 215.15625 146.66875 201.5625 128.934375 Z M 201.5625 128.934375 " transform="matrix(0.1,0,0,-0.1,0,32.62)"/>
</g>
</g>
</svg>
