<?xml version="1.0" encoding="UTF-8"?>
<svg xmlns="http://www.w3.org/2000/svg" xmlns:xlink="http://www.w3.org/1999/xlink" width="11.81pt" height="16.26pt" viewBox="0 0 11.81 16.26" version="1.1">
<defs>
<clipPath id="clip1">
  <path d="M 0 0 L 11.808594 0 L 11.808594 16.261719 L 0 16.261719 Z M 0 0 "/>
</clipPath>
</defs>
<g id="surface1">
<g clip-path="url(#clip1)" clip-rule="nonzero">
<path style=" stroke:none;fill-rule:nonzero;fill:#fff;fill-opacity:1;" d="M 4.410156 0 L 3.234375 0.308594 C 0.554688 1.015625 -0.0507813 3.617188 0.00390625 4.894531 C 0.214844 9.226563 3.660156 13.710938 4.96875 15.074219 C 5.714844 15.847656 6.6875 16.257813 7.777344 16.257813 C 9.285156 16.257813 10.542969 15.46875 10.679688 15.378906 L 11.8125 14.640625 L 11.199219 13.441406 L 9.449219 10.011719 L 8.769531 8.679688 L 7.4375 9.351563 L 7.414063 9.367188 L 5.960938 6.460938 L 5.992188 6.445313 L 7.304688 5.761719 L 6.640625 4.441406 L 4.957031 1.085938 Z M 3.617188 1.761719 L 5.300781 5.113281 L 3.960938 5.8125 L 6.746094 11.382813 L 8.113281 10.691406 L 9.863281 14.121094 C 9.863281 14.121094 8.882813 14.761719 7.777344 14.761719 C 7.195313 14.761719 6.574219 14.582031 6.050781 14.035156 C 4.726563 12.65625 1.679688 8.503906 1.5 4.835938 C 1.5 4.835938 1.398438 2.34375 3.617188 1.761719 "/>
</g>
</g>
</svg>
